<?xml version="1.0" standalone="no"?>
<!DOCTYPE svg PUBLIC "-//W3C//DTD SVG 20010904//EN"
 "http://www.w3.org/TR/2001/REC-SVG-20010904/DTD/svg10.dtd">
<svg version="1.0" xmlns="http://www.w3.org/2000/svg"
 width="5000.000000pt" height="5000.000000pt" viewBox="0 0 5000.000000 5000.000000"
 preserveAspectRatio="xMidYMid meet">
<metadata>
Created by potrace 1.14, written by Peter Selinger 2001-2017
</metadata>
<g transform="translate(0.000000,5000.000000) scale(0.100000,-0.100000)"
fill="#000000" stroke="none">
<path d="M23560 41295 l0 -45 -337 0 c-186 0 -402 -3 -480 -7 l-143 -6 0 -44
0 -43 -340 0 -340 0 0 -44 0 -44 -285 -7 -285 -7 0 -44 0 -44 -192 -2 -193 -3
-3 -47 -3 -48 -195 0 -194 0 0 -45 0 -45 -113 0 c-63 0 -148 -3 -190 -6 l-77
-7 0 -43 0 -44 -145 0 -145 0 0 -44 0 -43 -67 -6 c-38 -4 -103 -7 -145 -7
l-78 0 0 -45 0 -45 -140 0 -140 0 0 -50 0 -50 -145 0 -145 0 0 -44 0 -44 -95
-7 -95 -7 0 -44 0 -44 -100 0 -100 0 0 -44 0 -43 -67 -6 c-38 -4 -101 -7 -140
-7 l-73 0 0 -44 0 -44 -95 -7 -95 -7 0 -44 0 -43 -97 -3 -98 -3 -3 -41 -3 -42
-90 -7 -89 -7 0 -44 0 -44 -55 0 -55 0 0 -50 0 -50 -95 0 -95 0 0 -44 0 -44
-95 -7 -95 -7 0 -44 0 -44 -50 0 -50 0 0 -44 0 -44 -95 -7 -95 -7 0 -44 0 -44
-50 0 -50 0 0 -50 0 -50 -90 0 -90 0 0 -45 0 -45 -50 0 -50 0 0 -50 0 -50 -50
0 -50 0 0 -50 0 -50 -50 0 -50 0 0 -44 0 -44 -90 -7 -90 -7 0 -44 0 -44 -49 0
-50 0 -3 -47 -3 -48 -47 -3 -48 -3 0 -45 0 -44 -50 0 -50 0 0 -50 0 -50 -44 0
-45 0 -3 -47 -3 -48 -47 -3 -48 -3 0 -45 0 -44 -44 0 -44 0 -7 -95 -7 -95 -44
0 -44 0 0 -50 0 -50 -50 0 -50 0 0 -45 0 -45 -45 0 -45 0 0 -50 0 -50 -50 0
-50 0 0 -50 0 -50 -44 0 -44 0 -7 -95 -7 -95 -44 0 -44 0 0 -50 0 -50 -50 0
-50 0 0 -95 0 -95 -44 0 -44 0 -7 -95 -7 -95 -44 0 -44 0 0 -95 0 -95 -44 0
-43 0 -7 -77 c-3 -42 -6 -107 -6 -145 l0 -68 -45 0 -44 0 -3 -97 -3 -98 -41
-3 -41 -3 -7 -67 c-3 -37 -6 -100 -6 -139 l0 -73 -44 0 -43 0 -7 -77 c-3 -42
-6 -127 -6 -190 l0 -113 -45 0 -45 0 0 -150 0 -150 -44 0 -43 0 -6 -67 c-4
-38 -7 -123 -7 -190 l0 -123 -45 0 -45 0 0 -112 c0 -62 -3 -150 -7 -195 l-6
-83 -37 0 -37 0 -6 -67 c-4 -38 -7 -143 -7 -235 l0 -168 -44 0 -43 0 -7 -77
c-3 -42 -6 -172 -6 -290 l0 -213 -45 0 -45 0 0 -240 0 -240 -44 0 -43 0 -7
-77 c-3 -42 -6 -192 -6 -335 l0 -258 -43 0 -44 0 -6 -217 c-4 -120 -7 -273 -7
-340 l0 -123 -39 0 -38 0 -6 -67 c-4 -38 -7 -231 -7 -430 l0 -363 -44 0 -43 0
-7 -77 c-3 -42 -6 -260 -6 -485 l0 -408 -45 0 -45 0 0 -477 c0 -263 -3 -542
-7 -620 l-6 -142 -41 -3 -41 -3 -3 -432 -2 -433 100 0 100 0 0 45 0 45 45 0
45 0 0 50 0 50 50 0 50 0 0 50 0 50 50 0 50 0 0 44 0 44 90 7 90 7 0 44 0 44
49 0 50 0 3 48 3 47 48 3 47 3 0 44 0 44 48 3 47 3 3 48 3 47 45 0 44 0 0 45
0 45 50 0 50 0 0 50 0 50 50 0 50 0 0 45 0 45 45 0 45 0 0 50 0 50 50 0 50 0
0 50 0 50 95 0 95 0 0 50 0 50 45 0 45 0 0 45 0 45 50 0 50 0 0 50 0 50 50 0
50 0 0 45 0 45 45 0 45 0 0 50 0 50 50 0 50 0 0 95 0 95 50 0 50 0 0 100 0
100 45 0 44 0 3 143 3 142 48 3 47 3 0 140 0 139 44 0 43 0 7 77 c3 42 6 107
6 145 l0 68 45 0 45 0 0 145 0 145 50 0 50 0 0 95 0 95 45 0 45 0 0 145 0 145
50 0 50 0 0 145 0 145 44 0 43 0 6 68 c4 37 7 100 7 140 l0 72 45 0 45 0 0
145 0 145 50 0 50 0 0 100 0 100 45 0 45 0 0 68 c0 38 3 103 6 145 l7 77 43 0
44 0 0 140 0 140 44 0 43 0 7 77 c3 42 6 107 6 145 l0 68 45 0 45 0 0 145 0
145 50 0 50 0 0 100 0 100 45 0 45 0 0 63 c0 35 3 98 6 140 l7 77 43 0 44 0 0
145 0 145 44 0 43 0 6 68 c4 37 7 102 7 145 l0 77 45 0 45 0 0 139 0 140 48 3
47 3 3 98 3 97 44 0 45 0 0 68 c0 38 3 103 6 145 l7 77 43 0 44 0 0 95 0 95
50 0 50 0 0 44 0 44 90 7 90 7 0 44 0 44 55 0 55 0 0 44 0 44 95 7 95 7 0 44
0 44 140 0 140 0 0 50 0 50 100 0 100 0 0 45 0 44 143 3 142 3 3 48 3 47 122
0 c67 0 152 3 190 7 l67 6 0 37 0 37 77 7 c42 3 107 6 145 6 l68 0 0 45 0 45
190 0 190 0 0 50 0 50 195 0 195 0 0 45 0 45 163 0 c90 0 198 3 240 6 l77 7 0
43 0 44 240 0 240 0 0 44 0 43 77 7 c42 3 170 6 285 6 l208 0 0 45 0 45 263 0
c145 0 298 3 340 6 l77 7 0 43 0 44 430 0 430 0 0 43 0 44 770 6 c423 3 1116
3 1540 0 l770 -6 0 -44 0 -43 430 0 430 0 0 -44 0 -43 77 -7 c42 -3 195 -6
340 -6 l263 0 0 -45 0 -45 208 0 c115 0 243 -3 285 -6 l77 -7 0 -43 0 -44 240
0 240 0 0 -44 0 -43 77 -7 c42 -3 150 -6 240 -6 l163 0 0 -45 0 -45 195 0 195
0 0 -50 0 -50 190 0 190 0 0 -45 0 -45 68 0 c38 0 103 -3 145 -6 l77 -7 0 -37
0 -37 68 -6 c37 -4 122 -7 189 -7 l122 0 3 -47 3 -48 143 -3 142 -3 0 -44 0
-45 100 0 100 0 0 -50 0 -50 140 0 140 0 0 -44 0 -44 95 -7 95 -7 0 -44 0 -44
55 0 55 0 0 -44 0 -44 90 -7 90 -7 0 -44 0 -44 50 0 50 0 0 -95 0 -95 44 0 43
0 7 -77 c3 -42 6 -107 6 -145 l0 -68 45 0 44 0 3 -97 3 -98 48 -3 47 -3 0
-140 0 -139 45 0 45 0 0 -77 c0 -43 3 -108 7 -145 l6 -68 43 0 44 0 0 -145 0
-145 44 0 43 0 7 -77 c3 -42 6 -105 6 -140 l0 -63 45 0 45 0 0 -100 0 -100 50
0 50 0 0 -145 0 -145 45 0 45 0 0 -68 c0 -38 3 -103 6 -145 l7 -77 43 0 44 0
0 -140 0 -140 44 0 43 0 7 -77 c3 -42 6 -107 6 -145 l0 -68 45 0 45 0 0 -100
0 -100 50 0 50 0 0 -145 0 -145 45 0 45 0 0 -72 c0 -40 3 -103 7 -140 l6 -68
43 0 44 0 0 -145 0 -145 50 0 50 0 0 -145 0 -145 45 0 45 0 0 -95 0 -95 50 0
50 0 0 -145 0 -145 45 0 45 0 0 -68 c0 -38 3 -103 6 -145 l7 -77 43 0 44 0 0
-139 0 -140 48 -3 47 -3 3 -142 3 -143 44 0 45 0 0 -100 0 -100 50 0 50 0 0
-95 0 -95 50 0 50 0 0 -50 0 -50 45 0 45 0 0 -45 0 -45 50 0 50 0 0 -50 0 -50
50 0 50 0 0 -45 0 -45 45 0 45 0 0 -50 0 -50 95 0 95 0 0 -50 0 -50 50 0 50 0
0 -50 0 -50 45 0 45 0 0 -45 0 -45 50 0 50 0 0 -50 0 -50 50 0 50 0 0 -45 0
-45 44 0 45 0 3 -47 3 -48 48 -3 47 -3 0 -44 0 -44 48 -3 47 -3 3 -47 3 -48
50 0 49 0 0 -44 0 -44 90 -7 90 -7 0 -44 0 -44 50 0 50 0 0 -50 0 -50 50 0 50
0 0 -50 0 -50 45 0 45 0 0 -45 0 -45 100 0 100 0 -2 433 -3 432 -41 3 -41 3
-6 142 c-4 78 -7 357 -7 620 l0 477 -45 0 -45 0 0 388 c0 213 -3 451 -7 530
l-6 142 -44 0 -43 0 0 318 c0 174 -3 347 -7 385 l-6 67 -37 0 -38 0 -7 385 -7
385 -44 0 -44 0 -2 288 -3 287 -47 3 -48 3 0 285 0 284 -45 0 -45 0 0 168 c0
93 -3 203 -6 245 l-7 77 -43 0 -44 0 -2 238 -3 237 -41 3 -41 3 -7 76 c-3 42
-6 127 -6 190 l0 113 -45 0 -45 0 -2 193 -3 192 -47 3 -48 3 -2 187 -3 187
-42 3 -43 3 0 68 c0 37 -3 102 -6 144 l-7 77 -43 0 -44 0 0 139 0 140 -47 3
-48 3 -3 98 -3 97 -44 0 -44 0 -3 143 -3 142 -47 3 -48 3 0 95 0 94 -44 0 -44
0 -7 95 -7 95 -44 0 -44 0 0 95 0 95 -50 0 -50 0 0 50 0 50 -44 0 -44 0 -7 95
-7 95 -44 0 -44 0 0 50 0 50 -44 0 -45 0 -3 48 -3 47 -47 3 -48 3 0 45 0 44
-49 0 -49 0 -7 94 -7 95 -41 3 -42 3 -3 48 -3 47 -45 0 -44 0 0 50 0 50 -50 0
-50 0 0 45 0 45 -45 0 -45 0 0 50 0 50 -50 0 -50 0 0 44 0 45 -47 3 -48 3 -3
48 -3 47 -50 0 -49 0 0 44 0 44 -90 7 -90 7 0 44 0 44 -50 0 -50 0 0 50 0 50
-50 0 -50 0 0 50 0 50 -50 0 -50 0 0 45 0 45 -90 0 -90 0 0 50 0 50 -50 0 -50
0 0 44 0 44 -95 7 -95 7 0 44 0 44 -50 0 -50 0 0 44 0 44 -95 7 -95 7 0 44 0
44 -95 0 -95 0 0 50 0 50 -50 0 -50 0 0 44 0 44 -94 7 -95 7 -3 41 -3 42 -97
3 -98 3 0 43 0 44 -95 7 -95 7 0 44 0 44 -72 0 c-40 0 -103 3 -140 7 l-68 6 0
43 0 44 -100 0 -100 0 0 44 0 44 -95 7 -95 7 0 44 0 44 -145 0 -145 0 0 50 0
50 -140 0 -140 0 0 45 0 45 -77 0 c-43 0 -108 3 -145 7 l-68 6 0 43 0 44 -145
0 -145 0 0 44 0 43 -77 7 c-42 3 -127 6 -190 6 l-113 0 0 45 0 45 -195 0 -195
0 0 50 0 50 -195 0 -195 0 0 44 0 44 -285 7 -285 7 0 44 0 44 -340 0 -340 0 0
43 0 44 -142 6 c-79 4 -295 7 -480 7 l-338 0 0 45 0 45 -1440 0 -1440 0 0 -45z"/>
<path d="M17078 29033 l-48 -4 0 -38 0 -38 -82 -6 c-46 -4 -199 -7 -340 -7
l-258 0 0 -45 0 -45 -217 0 c-120 0 -248 -3 -285 -7 l-68 -6 0 -43 0 -44 -127
0 c-71 0 -158 -3 -195 -7 l-68 -6 0 -93 0 -94 100 0 100 0 0 -39 0 -38 61 -7
c34 -3 117 -6 185 -6 l123 0 3 -47 3 -48 188 -3 187 -2 0 -44 0 -43 83 -6 c45
-4 112 -7 150 -7 l67 0 0 -45 0 -45 190 0 190 0 0 -50 0 -50 145 0 145 0 0
-45 0 -45 190 0 190 0 0 -50 0 -50 190 0 190 0 0 -44 0 -43 77 -7 c42 -3 109
-6 150 -6 l73 0 0 -45 0 -45 190 0 190 0 0 -45 0 -45 -118 0 c-66 0 -153 -3
-195 -6 l-77 -7 0 -43 0 -44 -190 0 -190 0 0 -45 0 -44 -142 -3 -143 -3 -3
-47 -3 -48 -95 0 c-83 0 -94 -2 -94 -17 0 -10 -10 -31 -23 -46 -19 -24 -31
-29 -94 -34 l-73 -6 0 -43 0 -44 -95 0 -95 0 0 -50 0 -50 -50 0 -50 0 0 -44 0
-45 -47 -3 -48 -3 -3 -47 -3 -48 -45 0 -44 0 0 -50 0 -50 -50 0 -50 0 0 -45 0
-45 -44 0 -44 0 -7 -100 -7 -100 -44 0 -44 0 0 -95 0 -95 983 0 c541 0 1018
-3 1060 -6 l77 -7 0 -37 0 -37 212 -6 c116 -4 568 -7 1005 -7 l793 0 0 -45 0
-45 103 0 c57 0 165 -3 240 -7 l136 -6 3 -41 3 -41 92 -3 92 -3 3 -47 3 -47
48 -3 47 -3 0 -45 0 -44 50 0 50 0 0 -50 0 -50 45 0 45 0 0 -95 0 -95 50 0 50
0 0 -95 0 -95 45 0 45 0 0 -68 c0 -38 3 -103 6 -145 l7 -77 43 0 44 0 0 -770
0 -770 -45 0 -45 0 0 -97 c0 -54 -3 -162 -7 -240 l-6 -143 -44 0 -43 0 0 -190
0 -190 -44 0 -43 0 -6 -67 c-4 -38 -7 -123 -7 -190 l0 -123 -45 0 -45 0 0
-150 0 -150 -44 0 -43 0 -6 -67 c-4 -38 -7 -123 -7 -190 l0 -123 -44 0 -43 0
-7 -77 c-3 -42 -6 -127 -6 -190 l0 -113 -45 0 -45 0 0 -150 0 -150 -44 0 -43
0 -6 -67 c-4 -38 -7 -123 -7 -190 l0 -123 -45 0 -45 0 0 -122 c0 -68 -3 -153
-7 -190 l-6 -68 -43 0 -44 0 0 -190 0 -190 -44 0 -43 0 -7 -77 c-3 -42 -6
-109 -6 -150 l0 -73 -45 0 -45 0 0 -190 0 -190 -50 0 -50 0 0 -190 0 -190 -45
0 -45 0 0 -50 0 -50 -44 0 -45 0 -3 -47 -3 -48 -47 -3 -48 -3 0 -45 0 -44 -50
0 -50 0 0 -50 0 -50 -50 0 -50 0 0 -44 0 -43 -90 -7 -90 -8 0 -44 0 -44 -55 0
-55 0 0 -45 0 -45 -45 0 -45 0 0 -50 0 -50 -50 0 -50 0 0 -44 0 -44 -95 -7
-95 -7 0 -44 0 -43 -47 -3 -48 -3 -3 -47 -3 -48 -45 0 -44 0 0 -45 0 -45 -50
0 -50 0 0 -50 0 -50 -95 0 -95 0 0 -50 0 -50 -50 0 -50 0 0 -45 0 -45 -45 0
-45 0 0 -50 0 -50 -50 0 -50 0 0 -44 0 -44 -95 -7 -95 -7 0 -44 0 -44 -50 0
-50 0 0 -50 0 -50 -50 0 -50 0 0 -45 0 -45 -45 0 -45 0 0 -50 0 -50 -95 0 -95
0 0 -50 0 -50 -44 0 -44 0 -7 -95 c-4 -52 -4 -137 0 -189 l7 -94 89 -7 89 -7
0 -44 0 -44 195 0 195 0 0 45 0 45 68 0 c38 0 103 3 145 6 l77 7 0 43 0 44
139 0 140 0 3 48 3 47 143 3 142 3 0 44 0 45 78 0 c42 0 107 3 145 7 l67 6 0
43 0 44 145 0 145 0 0 45 0 45 68 0 c38 0 103 3 145 6 l77 7 0 43 0 44 78 0
c42 0 107 3 145 7 l67 6 0 43 0 44 145 0 145 0 0 45 0 45 73 0 c39 0 102 3
140 7 l67 6 0 43 0 44 145 0 145 0 0 44 0 43 77 7 c42 3 107 6 145 6 l68 0 0
45 0 45 78 0 c42 0 107 3 145 7 l67 6 0 43 0 44 145 0 145 0 0 45 0 45 68 0
c38 0 103 3 145 6 l77 7 0 43 0 44 139 0 140 0 3 48 3 47 143 3 142 3 0 44 0
45 78 0 c42 0 107 3 145 7 l67 6 0 43 0 44 145 0 145 0 0 45 0 45 68 0 c38 0
103 3 145 6 l77 7 0 43 0 43 143 3 142 3 3 48 3 47 140 0 139 0 0 45 0 45 50
0 50 0 0 50 0 50 50 0 50 0 0 189 0 190 -47 3 -48 3 -3 47 -3 46 -95 7 -94 7
0 44 0 44 -94 0 -95 0 -3 48 -3 47 -142 3 -143 3 0 44 0 45 -94 0 -95 0 -3 48
-3 47 -142 3 -143 3 0 43 0 44 -100 7 -100 8 0 37 0 37 -67 6 c-38 4 -100 7
-140 7 l-72 0 -3 48 -3 47 -142 3 -143 3 0 44 0 44 -97 3 -98 3 -3 42 -3 42
-90 7 -89 7 0 43 0 43 48 3 47 3 3 48 3 47 90 0 89 0 0 45 0 45 50 0 50 0 0
50 0 50 50 0 50 0 0 45 0 45 45 0 45 0 0 50 0 50 50 0 50 0 0 50 0 50 50 0 50
0 0 45 0 45 45 0 45 0 0 50 0 50 50 0 50 0 0 50 0 50 44 0 44 0 7 95 7 95 44
0 44 0 0 50 0 50 44 0 44 0 7 95 7 95 44 0 44 0 0 79 c0 43 3 106 6 140 l7 61
43 0 44 0 0 145 0 145 44 0 43 0 7 77 c3 42 6 280 6 530 l0 453 45 0 45 0 0
1055 0 1055 43 0 44 0 6 152 c4 83 7 432 7 775 l0 623 45 0 45 0 0 140 0 140
-45 0 -45 0 0 268 c0 147 -3 297 -7 335 l-6 67 -43 0 -44 0 0 145 0 145 -44 0
-44 0 -7 100 -7 100 -44 0 -44 0 0 50 0 50 -50 0 -50 0 0 95 0 95 -45 0 -45 0
0 45 0 45 -50 0 -50 0 0 50 0 50 -50 0 -50 0 0 44 0 44 -95 7 -95 7 0 44 0 44
-95 0 -95 0 0 50 0 50 -100 0 -100 0 0 44 0 43 -67 6 c-38 4 -143 7 -235 7
l-167 0 -3 43 -3 42 -332 3 -333 2 0 44 0 43 -77 7 c-42 3 -237 6 -435 6
l-358 0 0 45 0 45 -387 0 c-214 0 -452 3 -530 7 l-143 6 0 37 0 37 -77 7 c-78
6 -2570 5 -2655 -1z"/>
<path d="M30287 29033 c-4 -3 -7 -23 -7 -43 l0 -37 -212 -6 c-116 -4 -372 -7
-570 -7 l-358 0 0 -45 0 -45 -367 0 c-203 0 -398 -3 -435 -7 l-68 -6 0 -43 0
-44 -337 -2 -338 -3 -3 -42 -3 -43 -158 0 c-87 0 -192 -3 -234 -6 l-77 -7 0
-43 0 -44 -100 0 -100 0 0 -50 0 -50 -95 0 -95 0 0 -45 0 -45 -50 0 -50 0 0
-50 0 -50 -95 0 -95 0 0 -50 0 -50 -44 0 -44 0 -7 -95 -7 -95 -44 0 -44 0 0
-44 0 -45 -47 -3 -48 -3 -3 -92 -3 -92 -47 -3 -47 -3 -3 -97 -3 -98 -44 0 -45
0 0 -145 0 -145 -44 0 -43 0 -7 -76 c-8 -92 -8 -1835 1 -1951 l6 -83 43 0 44
0 0 -983 c0 -541 3 -1018 6 -1060 l7 -77 38 0 39 0 0 -548 c0 -302 3 -583 6
-625 l7 -77 43 0 44 0 0 -190 0 -190 50 0 50 0 0 -100 0 -100 45 0 45 0 0 -95
0 -95 50 0 50 0 0 -95 0 -95 44 0 45 0 3 -47 3 -48 47 -3 47 -3 3 -92 3 -92
48 -3 47 -3 0 -50 0 -49 45 0 45 0 0 -45 0 -45 50 0 50 0 0 -50 0 -50 50 0 50
0 0 -45 0 -45 45 0 45 0 0 -50 0 -50 50 0 50 0 0 -44 0 -45 48 -3 47 -3 3 -47
3 -48 95 0 94 0 0 -50 0 -50 50 0 50 0 0 -45 c0 -44 0 -45 -34 -45 -18 0 -60
-3 -94 -6 l-61 -7 -3 -41 -3 -41 -97 -3 -98 -3 0 -44 0 -45 -77 0 c-43 0 -108
-3 -145 -7 l-68 -6 0 -43 0 -44 -95 0 -95 0 0 -45 0 -45 -68 0 c-38 0 -103 -3
-145 -6 l-77 -7 0 -43 0 -44 -72 0 c-40 0 -103 -3 -140 -6 l-67 -7 -3 -41 -3
-41 -97 -3 -98 -3 0 -44 0 -45 -77 0 c-43 0 -108 -3 -145 -7 l-68 -6 0 -43 0
-44 -95 0 -95 0 0 -44 0 -44 -94 -7 -94 -7 -7 -94 -7 -94 -44 0 -44 0 0 -100
0 -100 44 0 44 0 7 -95 7 -95 94 0 94 0 0 -45 0 -44 98 -3 97 -3 3 -41 3 -41
61 -7 c34 -3 96 -6 139 -6 l79 0 0 -44 0 -43 77 -7 c42 -3 107 -6 145 -6 l68
0 0 -45 0 -45 145 0 145 0 0 -44 0 -43 68 -6 c37 -4 102 -7 145 -7 l77 0 0
-45 0 -44 143 -3 142 -3 3 -41 3 -41 67 -7 c37 -3 102 -6 145 -6 l77 0 0 -44
0 -43 68 -6 c37 -4 100 -7 140 -7 l72 0 0 -45 0 -45 145 0 145 0 0 -44 0 -43
68 -6 c37 -4 102 -7 145 -7 l77 0 0 -45 0 -45 68 0 c38 0 103 -3 145 -6 l77
-7 0 -37 0 -37 68 -6 c37 -4 102 -7 145 -7 l77 0 0 -44 0 -43 68 -6 c37 -4
102 -7 145 -7 l77 0 0 -45 0 -44 143 -3 142 -3 3 -41 3 -41 61 -7 c34 -3 96
-6 139 -6 l79 0 0 -45 0 -45 68 0 c38 0 103 -3 145 -6 l77 -7 0 -43 0 -44 145
0 145 0 0 -44 0 -43 68 -6 c37 -4 102 -7 145 -7 l77 0 0 -45 0 -44 143 -3 142
-3 3 -41 3 -41 67 -7 c37 -3 100 -6 140 -6 l72 0 0 -44 0 -43 77 -7 c42 -3
107 -6 145 -6 l68 0 0 -45 0 -45 240 0 240 0 0 50 0 50 50 0 50 0 0 190 0 190
-50 0 -50 0 0 50 0 50 -50 0 -50 0 0 44 0 44 -90 7 -90 7 0 44 0 44 -50 0 -50
0 0 50 0 50 -50 0 -50 0 0 44 0 45 -47 3 -48 3 -3 48 -3 47 -89 0 -89 0 -3 48
-3 47 -47 3 -48 3 0 45 0 44 -50 0 -50 0 0 50 0 50 -95 0 -95 0 0 50 0 50 -50
0 -50 0 0 45 0 45 -44 0 -45 0 -3 48 -3 47 -47 3 -48 3 0 43 0 44 -95 7 -95 7
0 44 0 44 -50 0 -50 0 0 50 0 50 -45 0 -45 0 0 45 0 45 -49 0 -50 0 -3 48 -3
47 -92 3 -92 3 -3 47 -3 47 -47 3 -48 3 0 45 0 44 -44 0 -45 0 -3 48 -3 47
-47 3 -48 3 0 45 0 44 -50 0 -50 0 0 95 0 95 -45 0 -45 0 0 118 c0 66 -3 153
-6 195 l-7 77 -43 0 -44 0 0 145 0 145 -45 0 -45 0 0 113 c0 63 -3 148 -6 190
l-7 77 -43 0 -44 0 0 190 0 190 -44 0 -43 0 -7 77 c-3 42 -6 109 -6 150 l0 73
-45 0 -45 0 -2 188 -3 187 -47 3 -48 3 0 190 0 189 -44 0 -43 0 -8 190 -7 190
-44 0 -44 0 0 150 0 150 -44 0 -43 0 -6 68 c-4 37 -7 122 -7 190 l0 122 -45 0
-45 0 0 123 c0 67 -3 152 -7 190 l-6 67 -43 0 -43 0 -3 148 -3 147 -41 3 -42
3 -7 285 -7 284 -44 0 -44 0 0 670 0 670 44 0 43 0 8 190 7 190 44 0 44 0 0
100 0 100 50 0 50 0 0 95 0 95 45 0 45 0 0 50 0 50 50 0 50 0 0 44 0 45 48 3
c42 3 47 6 50 28 8 73 4 70 102 70 l90 0 0 43 0 44 143 6 c78 4 186 7 240 7
l97 0 0 45 0 45 793 0 c437 0 889 3 1005 7 l212 6 0 37 0 37 77 7 c42 3 519 6
1060 6 l983 0 0 100 0 100 -44 0 -44 0 -7 95 -7 95 -44 0 -44 0 0 45 0 45 -50
0 -50 0 0 50 0 50 -44 0 -45 0 -3 48 -3 47 -47 3 -48 3 0 45 0 44 -50 0 -50 0
0 50 0 50 -95 0 -95 0 0 44 0 44 -95 7 -95 7 0 44 0 44 -94 0 -95 0 -3 48 -3
47 -142 3 -143 3 0 44 0 45 -150 0 -150 0 0 44 0 43 -67 6 c-38 4 -143 7 -235
7 l-168 0 0 45 0 45 195 0 195 0 0 45 0 45 118 0 c64 0 147 3 185 7 l67 6 0
43 0 44 150 0 150 0 0 44 0 43 68 6 c37 4 122 7 190 7 l122 0 0 45 0 45 145 0
145 0 0 50 0 50 190 0 190 0 0 44 0 44 190 7 190 7 0 44 0 44 150 0 150 0 0
50 0 50 190 0 190 0 0 45 0 45 95 0 95 0 0 100 0 100 -190 0 -190 0 0 44 0 43
-77 7 c-42 3 -172 6 -290 6 l-213 0 0 45 0 45 -258 0 c-143 0 -293 3 -335 6
l-77 7 0 37 0 37 -77 7 c-101 8 -2608 8 -2616 -1z"/>
<path d="M13614 23073 l-41 -4 -7 -67 c-3 -37 -6 -253 -6 -479 l0 -413 -43 0
-44 0 -6 -142 c-9 -186 -9 -3331 -1 -3431 l7 -77 43 0 44 0 0 -190 0 -190 44
0 44 0 7 -100 7 -100 44 0 44 0 0 -95 0 -95 50 0 50 0 0 -95 0 -95 44 0 44 0
7 -95 7 -95 44 0 44 0 0 -50 0 -50 44 0 44 0 7 -90 7 -90 44 0 43 0 3 -52 3
-53 48 -3 47 -3 0 -45 0 -44 44 0 44 0 7 -95 7 -95 44 0 44 0 0 -50 0 -50 50
0 50 0 0 -50 0 -50 44 0 45 0 3 -47 3 -48 48 -3 47 -3 0 -89 0 -89 48 -3 47
-3 3 -47 3 -48 45 0 44 0 0 -50 0 -50 50 0 50 0 0 -45 0 -45 45 0 45 0 0 -50
0 -50 50 0 50 0 0 -95 0 -95 50 0 50 0 0 -50 0 -50 45 0 45 0 0 -45 0 -45 50
0 50 0 0 -50 0 -50 44 0 45 0 3 -47 3 -48 48 -3 47 -3 0 -45 0 -44 44 0 45 0
3 -47 3 -48 48 -3 47 -3 0 -50 0 -49 50 0 50 0 0 -89 0 -90 48 -3 47 -3 3 -47
3 -48 45 0 44 0 0 -50 0 -50 50 0 50 0 0 -45 0 -45 45 0 45 0 0 -50 0 -50 50
0 50 0 0 -50 0 -50 50 0 50 0 0 -45 0 -45 45 0 45 0 0 -50 0 -50 50 0 50 0 0
-50 0 -50 45 0 45 0 0 -45 0 -45 50 0 50 0 0 -50 0 -50 44 0 45 0 3 -47 3 -48
48 -3 47 -3 0 -45 0 -44 50 0 50 0 0 -50 0 -50 45 0 45 0 0 -45 0 -45 100 0
100 0 0 1490 0 1490 -44 0 -44 0 -7 95 -7 95 -44 0 -44 0 0 50 0 50 -50 0 -50
0 0 95 0 95 -44 0 -44 0 -7 95 -7 95 -43 0 -43 0 -7 94 -7 95 -41 3 -42 3 -3
48 -3 47 -44 0 -44 0 -3 98 -3 97 -47 3 -48 3 0 95 0 94 -44 0 -44 0 -7 90 -7
90 -44 0 -44 0 0 55 0 55 -44 0 -44 0 -7 95 -7 95 -44 0 -44 0 0 95 0 95 -50
0 -50 0 0 95 0 95 -45 0 -45 0 0 50 0 50 -50 0 -50 0 0 95 0 95 -50 0 -50 0 0
95 0 95 -44 0 -44 0 -7 95 -7 95 -44 0 -44 0 0 50 0 50 -45 0 -45 0 0 95 0 95
-50 0 -49 0 -3 98 -3 97 -47 3 -48 3 0 90 0 89 -44 0 -45 0 -3 53 -3 52 -47 3
-48 3 0 95 0 94 -44 0 -44 0 -7 95 -7 95 -44 0 -43 0 -3 93 -3 92 -47 3 -48 3
0 95 0 94 -45 0 -45 0 0 50 0 50 -50 0 -50 0 0 95 0 95 -44 0 -44 0 -7 95 -7
95 -43 0 -43 0 -7 95 -7 95 -44 0 -44 0 0 50 0 50 -45 0 -45 0 0 95 0 95 -50
0 -50 0 0 94 0 95 -47 3 -48 3 -3 93 -3 92 -44 0 -44 0 -3 53 -3 52 -47 3 -48
3 0 95 0 94 -44 0 -44 0 -7 95 -7 95 -44 0 -43 0 -3 93 -3 92 -47 3 -48 3 0
50 0 49 -45 0 -44 0 -3 93 -3 92 -50 1 c-27 1 -68 -1 -91 -3z"/>
<path d="M36247 23074 c-4 -4 -7 -47 -7 -96 l0 -88 -45 0 -45 0 0 -95 0 -95
-50 0 -50 0 0 -55 0 -55 -44 0 -44 0 -7 -90 -7 -90 -44 0 -44 0 0 -94 0 -95
-47 -3 -48 -3 -3 -97 -3 -98 -44 0 -45 0 0 -50 0 -50 -44 0 -44 0 -7 -95 -7
-95 -43 0 -43 0 -7 -95 -7 -95 -44 0 -44 0 0 -95 0 -95 -50 0 -50 0 0 -50 0
-50 -45 0 -45 0 0 -95 0 -95 -50 0 -50 0 0 -94 0 -95 -47 -3 -48 -3 -3 -92 -3
-93 -44 0 -45 0 0 -55 0 -55 -44 0 -44 0 -8 -90 -7 -90 -42 0 -43 0 -7 -95 -7
-95 -44 0 -44 0 0 -100 0 -100 -50 0 -50 0 0 -95 0 -95 -45 0 -45 0 0 -50 0
-50 -50 0 -50 0 0 -95 0 -95 -44 0 -44 0 -7 -95 -7 -95 -44 0 -44 0 0 -95 0
-95 -50 0 -50 0 0 -50 0 -50 -45 0 -45 0 0 -95 0 -95 -50 0 -50 0 0 -94 0 -95
-47 -3 -48 -3 -3 -92 -3 -93 -44 0 -45 0 0 -50 0 -50 -44 0 -44 0 -7 -95 -7
-95 -43 0 -43 0 -7 -94 -7 -95 -41 -3 -42 -3 -3 -92 -3 -92 -47 -3 -47 -3 -3
-52 -3 -53 -45 0 -44 0 0 -95 0 -95 -50 0 -50 0 0 -95 0 -95 -44 0 -44 0 -7
-95 -7 -95 -44 0 -44 0 0 -50 0 -50 -44 0 -44 0 -7 -95 -7 -95 -44 0 -44 0 0
-95 0 -95 -50 0 -50 0 0 -94 0 -95 -47 -3 -48 -3 -3 -97 -3 -98 -42 0 -42 0 0
-1440 0 -1440 98 0 97 0 0 45 0 45 45 0 45 0 0 50 0 50 50 0 50 0 0 44 0 45
48 3 47 3 3 48 3 47 45 0 44 0 0 50 0 50 50 0 50 0 0 45 0 45 45 0 45 0 0 50
0 50 50 0 50 0 0 50 0 50 50 0 50 0 0 45 0 45 45 0 45 0 0 50 0 50 50 0 50 0
0 45 0 45 45 0 45 0 0 50 0 50 50 0 50 0 0 50 0 50 45 0 45 0 0 44 0 45 48 3
47 3 3 48 3 47 44 0 43 0 7 95 7 95 49 0 49 0 0 50 0 50 45 0 45 0 0 45 0 45
50 0 50 0 0 50 0 50 45 0 45 0 0 50 0 50 50 0 50 0 0 45 0 45 45 0 45 0 0 50
0 50 50 0 50 0 0 50 0 50 44 0 44 0 7 90 7 90 44 0 44 0 0 50 0 50 50 0 50 0
0 49 0 50 48 3 47 3 3 48 3 47 45 0 44 0 0 50 0 50 44 0 44 0 7 90 7 90 44 0
44 0 0 50 0 50 50 0 50 0 0 50 0 50 44 0 44 0 7 95 7 95 44 0 44 0 0 45 0 45
50 0 50 0 0 50 0 50 44 0 44 0 7 95 7 95 44 0 44 0 0 50 0 50 44 0 44 0 7 95
7 95 44 0 44 0 0 50 0 50 44 0 44 0 7 95 7 95 43 0 42 0 7 77 c3 42 6 107 6
145 l0 68 45 0 45 0 0 145 0 145 44 0 43 0 7 77 c8 100 8 3435 -1 3621 l-6
142 -43 0 -44 0 -2 433 -3 432 -90 3 c-50 1 -94 0 -98 -4z"/>
<path d="M21540 15100 l0 -100 45 0 45 0 0 -45 0 -45 50 0 50 0 0 -50 0 -50
50 0 50 0 0 -50 0 -50 45 0 45 0 0 -45 0 -45 50 0 50 0 0 -50 0 -50 50 0 50 0
0 -44 0 -44 95 -7 95 -7 0 -44 0 -44 50 0 50 0 0 -44 0 -44 95 -7 95 -7 0 -43
0 -43 95 -7 95 -7 0 -44 0 -44 95 0 95 0 0 -50 0 -50 95 0 95 0 0 -45 0 -45
50 0 50 0 0 -44 0 -44 95 -7 95 -7 0 -43 0 -43 95 -7 95 -7 0 -44 0 -44 50 0
50 0 0 -44 0 -44 95 -7 95 -7 0 -44 0 -43 48 -3 47 -3 3 -47 3 -48 45 0 44 0
0 -50 0 -50 50 0 50 0 0 -95 0 -95 45 0 45 0 0 -63 c0 -35 3 -98 6 -140 l7
-77 43 0 44 0 0 -385 0 -385 -44 0 -44 0 -7 -100 -7 -100 -44 0 -44 0 0 -90 0
-90 -50 0 -50 0 0 -50 0 -50 -95 0 -95 0 0 -44 0 -43 -67 -6 c-38 -4 -989 -7
-2115 -7 l-2048 0 0 -94 0 -94 95 -7 95 -7 0 -44 0 -44 50 0 50 0 0 -50 0 -50
50 0 50 0 0 -45 0 -45 95 0 95 0 0 -50 0 -50 45 0 45 0 0 -45 0 -45 50 0 50 0
0 -50 0 -50 95 0 95 0 0 -50 0 -50 50 0 50 0 0 -45 0 -45 50 0 50 0 0 -50 0
-50 95 0 95 0 0 -50 0 -50 45 0 45 0 0 -45 0 -45 50 0 50 0 0 -44 0 -44 95 -7
95 -7 0 -44 0 -44 50 0 50 0 0 -50 0 -50 50 0 50 0 0 -44 0 -44 89 -7 90 -7 3
-42 3 -41 47 -3 47 -3 3 -47 3 -47 93 -3 92 -3 0 -44 0 -44 53 -3 52 -3 3 -41
3 -41 61 -7 c34 -3 76 -6 94 -6 33 0 34 -1 34 -44 l0 -44 95 -7 95 -7 0 -44 0
-44 140 0 140 0 0 -50 0 -50 100 0 100 0 0 -44 0 -44 190 -7 190 -7 0 -44 0
-44 145 0 145 0 0 -44 0 -43 77 -7 c42 -3 170 -6 285 -6 l208 0 0 -45 0 -45
680 0 680 0 0 45 0 45 208 0 c115 0 243 3 285 6 l77 7 0 43 0 44 123 0 c67 0
152 3 190 7 l67 6 0 37 0 37 77 7 c42 3 107 6 145 6 l68 0 0 45 0 45 100 0
100 0 0 50 0 50 140 0 140 0 0 44 0 44 95 7 95 7 0 44 0 43 98 3 97 3 3 48 3
47 50 0 49 0 0 45 0 45 95 0 95 0 0 50 0 50 50 0 50 0 0 44 0 44 90 7 90 7 0
44 0 44 50 0 50 0 0 50 0 50 50 0 50 0 0 45 0 44 93 3 92 3 3 48 3 47 50 0 49
0 0 44 0 45 48 3 47 3 3 48 3 47 90 0 89 0 0 50 0 50 50 0 50 0 0 45 0 45 50
0 50 0 0 50 0 50 95 0 95 0 0 50 0 50 50 0 50 0 0 44 0 44 90 7 90 7 0 44 0
44 50 0 50 0 0 45 0 45 50 0 50 0 0 50 0 50 50 0 50 0 0 44 0 44 95 7 95 7 0
94 0 94 -2047 0 c-1127 0 -2078 3 -2115 7 l-68 6 0 43 0 44 -50 0 -50 0 0 44
0 44 -95 7 -95 7 0 94 0 94 -44 0 -44 0 -7 95 -7 95 -44 0 -44 0 0 380 0 380
44 0 43 0 7 77 c3 42 6 107 6 145 l0 68 45 0 45 0 0 50 0 50 44 0 44 0 7 95 7
95 44 0 43 0 3 48 3 47 48 3 47 3 0 44 0 44 93 3 92 3 3 48 3 47 50 0 49 0 0
44 0 44 95 7 95 7 0 43 0 43 95 7 95 7 0 44 0 44 50 0 50 0 0 45 0 45 95 0 95
0 0 50 0 50 95 0 95 0 0 44 0 44 95 7 95 7 0 44 0 44 50 0 50 0 0 50 0 50 95
0 95 0 0 44 0 44 95 7 95 7 0 44 0 44 50 0 50 0 0 50 0 50 50 0 50 0 0 45 0
45 45 0 45 0 0 50 0 50 50 0 50 0 0 50 0 50 50 0 50 0 0 45 0 45 45 0 45 0 0
100 0 100 -145 0 -145 0 0 -50 0 -50 -192 -2 -193 -3 -3 -42 -3 -43 -113 0
c-62 0 -147 -3 -189 -6 l-77 -7 0 -43 0 -44 -167 0 c-93 0 -198 -3 -235 -6
l-67 -7 -3 -41 -3 -41 -192 -3 -193 -2 0 -45 0 -45 -192 -2 -193 -3 -3 -47 -3
-48 -285 0 -284 0 0 -44 0 -43 -290 -5 c-159 -2 -420 -2 -580 0 l-290 5 0 43
0 44 -285 0 -285 0 0 50 0 50 -195 0 -195 0 0 45 0 45 -192 2 -193 3 -3 41 -3
41 -61 7 c-34 3 -139 6 -234 6 l-174 0 0 44 0 43 -77 7 c-42 3 -127 6 -190 6
l-113 0 0 45 0 45 -178 0 -178 0 -17 35 c-9 20 -17 42 -17 50 0 13 -24 15
-145 15 l-145 0 0 -100z"/>
</g>
</svg>
